HIERARCHY
ROOT Hips
{
	OFFSET 0.0000 0.0000 0.0000
	CHANNELS 6 Xposition Yposition Zposition Zrotation Xrotation Yrotation
	JOINT Ab
	{
		OFFSET -0.0000 8.1305 -0.0000
		CHANNELS 3 Zrotation Xrotation Yrotation
		JOINT Chest
		{
			OFFSET -0.0000 26.2902 -0.0000
			CHANNELS 3 Zrotation Xrotation Yrotation
			JOINT Neck
			{
				OFFSET -0.0000 26.2902 0.0000
				CHANNELS 3 Zrotation Xrotation Yrotation
				JOINT Head
				{
					OFFSET -0.0000 10.8167 0.0000
					CHANNELS 3 Zrotation Xrotation Yrotation
					End Site
					{
						OFFSET -0.0000 16.7167 0.0000
					}
				}
			}
			JOINT LeftCollar
			{
				OFFSET -0.0000 26.2902 0.0000
				CHANNELS 3 Zrotation Xrotation Yrotation
				JOINT LeftShoulder
				{
					OFFSET 19.6667 -0.0000 0.0000
					CHANNELS 3 Zrotation Xrotation Yrotation
					JOINT LeftElbow
					{
						OFFSET 27.2190 0.0000 0.0000
						CHANNELS 3 Zrotation Xrotation Yrotation
						JOINT LeftWrist
						{
							OFFSET 30.7431 0.0000 0.0000
							CHANNELS 3 Zrotation Xrotation Yrotation
							End Site
							{
								OFFSET 0.0000 -14.7500 0.0000
							}
						}
					}
				}
			}
			JOINT RightCollar
			{
				OFFSET -0.0000 26.2902 0.0000
				CHANNELS 3 Zrotation Xrotation Yrotation
				JOINT RightShoulder
				{
					OFFSET -19.6667 0.0000 0.0000
					CHANNELS 3 Zrotation Xrotation Yrotation
					JOINT RightElbow
					{
						OFFSET -27.2190 0.0000 0.0000
						CHANNELS 3 Zrotation Xrotation Yrotation
						JOINT RightWrist
						{
							OFFSET -30.7431 0.0000 0.0000
							CHANNELS 3 Zrotation Xrotation Yrotation
							End Site
							{
								OFFSET -0.0000 -14.7500 0.0000
							}
						}
					}
				}
			}
		}
	}
	JOINT LeftHip
	{
		OFFSET 11.8000 0.0000 0.0000
		CHANNELS 3 Zrotation Xrotation Yrotation
		JOINT LeftKnee
		{
			OFFSET -0.0000 -39.7832 0.0000
			CHANNELS 3 Zrotation Xrotation Yrotation
			JOINT LeftAnkle
			{
				OFFSET -0.0000 -41.7317 0.0000
				CHANNELS 3 Zrotation Xrotation Yrotation
				End Site
				{
					OFFSET -0.0000 -4.9167 16.7167
				}
			}
		}
	}
	JOINT RightHip
	{
		OFFSET -11.8000 0.0000 0.0000
		CHANNELS 3 Zrotation Xrotation Yrotation
		JOINT RightKnee
		{
			OFFSET -0.0000 -39.7832 0.0000
			CHANNELS 3 Zrotation Xrotation Yrotation
			JOINT RightAnkle
			{
				OFFSET -0.0000 -41.7317 0.0000
				CHANNELS 3 Zrotation Xrotation Yrotation
				End Site
				{
					OFFSET -0.0000 -4.9167 16.7167
				}
			}
		}
	}
}
MOTION
Frames: 19
Frame Time: 0.010000
-2.7438 89.3488 62.6619 358.3588 348.8403 186.3675 357.9814 348.7620 1.4014 5.1826 19.2695 0.7152 356.6522 355.9154 356.9379 1.7640 16.0083 356.8036 340.5976 357.6584 13.6925 328.4255 61.3639 327.1533 10.8086 356.2714 323.1265 89.7107 355.4655 349.9926 27.3365 356.7410 346.6161 31.7258 52.0325 23.3659 334.6072 352.4416 32.5521 269.3106 354.9426 1.1846 355.2294 336.3177 2.4829 357.3215 17.0341 2.5677 358.9544 357.0925 13.9176 359.2656 358.2238 2.9917 9.0796 16.8444 14.6698 345.3125 336.0661 310.9352 
-2.8848 89.3040 62.1773 358.2653 348.9180 186.2333 357.8700 348.9079 1.3623 4.9956 19.1680 0.7346 356.6015 356.0216 357.0099 1.6535 16.0493 356.8881 340.6175 357.6716 13.6056 328.5806 61.3926 327.0254 10.9384 356.2874 323.3333 89.6845 355.5000 350.2237 27.2060 356.7579 346.5140 32.4448 52.2997 22.8717 334.5096 352.4524 32.2982 269.3616 354.9767 0.8756 355.2018 336.4378 2.5134 357.1991 17.5938 2.2448 359.5339 356.9490 14.1888 359.1397 358.3734 2.7756 9.0228 17.3721 14.6064 345.5805 335.5789 311.0863 
-3.0345 89.2518 61.6829 358.1928 349.0342 186.1009 357.7785 349.0891 1.3632 4.8454 19.0521 0.7581 356.5574 356.1303 357.1089 1.4322 16.1492 357.0174 340.5782 357.6620 13.5792 328.8896 61.4023 326.7722 11.0403 356.2975 323.4766 89.6862 355.5910 350.5340 27.0587 356.7487 346.4616 33.1957 52.5444 22.2734 334.4236 352.4800 32.0651 269.3858 354.9165 0.5978 355.1729 336.6927 2.2654 357.0200 17.9507 2.5201 0.1141 356.7936 14.1971 359.0265 358.5603 2.5913 9.0257 17.8859 14.3297 345.9102 335.1018 311.3109 
-3.1938 89.2085 61.1906 358.0569 349.0504 185.8469 357.6120 349.1555 1.4043 4.7246 18.9284 0.8594 356.4745 356.3285 357.2268 1.1825 16.2260 357.1659 340.4957 357.6553 13.5348 329.1484 61.3633 326.6296 11.0347 356.3509 323.5241 89.6942 355.7277 350.7200 26.9211 356.7402 346.4442 33.9464 52.7995 21.5517 334.3911 352.5282 31.9042 269.4052 354.9077 0.4271 355.0592 336.8869 2.3944 356.9923 18.2799 2.5112 0.6230 356.5700 14.2173 358.8127 358.5925 2.5462 9.0107 18.5118 14.3373 346.2333 334.7458 311.3874 
-3.3584 89.1605 60.6976 357.9376 349.0878 185.5694 357.4871 349.2316 1.4460 4.5802 18.8156 0.9337 356.4072 356.5363 357.3364 0.9598 16.3328 357.3014 340.4379 357.6516 13.5328 329.7100 61.4560 326.1257 11.0944 356.3399 323.6340 89.7279 355.7672 351.0457 26.7778 356.7524 346.4471 34.7566 53.0313 20.7809 334.3837 352.5659 31.7938 269.4464 354.9264 0.3966 354.9609 337.1538 2.5652 356.9622 18.5065 2.5377 1.0154 356.3598 14.2456 358.5915 358.6029 2.5426 9.0374 19.2042 14.3981 346.4903 334.3948 311.4725 
-3.5232 89.1150 60.2127 357.8211 349.1189 185.2555 357.3520 349.2705 1.4879 4.4812 18.7579 1.0074 356.3497 356.7132 357.4862 0.5909 16.4898 357.5006 340.3169 357.6105 13.6410 330.6264 61.5575 325.2766 11.1455 356.3298 323.7555 89.6621 355.6778 351.1803 26.6708 356.7560 346.4620 35.2753 53.1754 20.2563 334.5519 352.6707 31.6705 269.5468 354.9152 0.5285 354.8620 337.4410 2.7621 356.9573 18.6612 2.6930 1.4491 356.1505 14.1566 358.3389 358.5436 2.5647 9.1136 19.9720 14.3859 346.8038 334.0246 311.6372 
-3.6834 89.0670 59.7157 357.7068 349.1630 184.9352 357.2202 349.2323 1.4672 4.3963 18.8093 1.0000 356.2401 356.9831 357.6692 0.3186 16.5274 357.7184 340.2012 357.6021 13.6196 330.9864 61.4458 325.0447 11.0945 356.3773 323.7153 89.6662 355.7091 351.0530 26.7200 356.7935 346.7316 35.9066 52.8138 19.3268 335.0731 352.8695 31.9039 269.6276 354.9956 1.0547 354.7612 337.7797 3.0006 356.9629 18.7606 2.8281 1.8220 355.9440 14.0430 358.0851 358.4360 2.6180 9.1841 20.8754 14.4896 347.2620 333.6579 311.7605 
-3.8474 89.0297 59.2309 357.5974 349.1967 184.6373 357.1457 349.2171 1.4774 4.2160 18.8566 1.0446 356.2436 357.1134 357.8862 359.8881 16.6316 357.9997 340.1135 357.5978 13.6529 331.2606 61.1810 324.8714 11.0088 356.3874 323.5882 89.1555 355.7702 350.5758 26.7344 356.8286 346.8097 36.1105 52.7839 19.0010 335.4238 352.9617 31.9147 269.7385 354.9551 1.5290 354.6686 338.0893 3.2231 356.9348 18.9015 2.9116 2.1146 355.6706 14.0066 357.7912 358.2319 2.2491 8.9855 22.1312 15.4415 348.4253 333.3703 312.0498 
-4.0359 89.0027 58.7543 357.4794 349.2100 184.3790 357.0635 349.1794 1.4476 4.0776 18.9078 1.0420 356.1638 357.3533 358.0517 359.5850 16.6366 358.2338 340.0338 357.5906 13.6189 331.5903 61.1002 324.6126 11.0750 356.3576 323.4988 89.5313 355.8410 350.8272 26.6672 356.8271 346.7249 35.9385 53.1922 19.1746 335.5839 353.0104 31.6884 269.9326 354.9527 1.9752 354.4921 338.3812 3.3587 356.9716 19.0279 2.9661 2.3457 355.3844 13.9890 357.4431 357.9659 2.0899 9.1350 23.3011 15.4776 348.8259 332.9216 312.3455 
-4.1924 88.9689 58.2747 357.3558 349.2754 184.0612 356.9231 349.1931 1.4319 4.0171 18.9624 1.0514 355.9234 357.6630 358.3079 359.4824 16.5366 358.4529 339.8690 357.5772 13.6228 331.6781 60.6538 324.6840 10.8539 356.4512 323.3388 89.4165 355.6597 350.3613 26.6997 356.8615 346.8429 36.0455 53.0726 18.8152 336.0641 353.1781 31.8449 270.0687 354.9443 2.7758 354.3953 338.7324 3.5745 356.9543 19.1154 3.1855 2.0195 355.0355 13.9889 357.1045 357.6783 2.1257 9.5310 24.4447 14.8462 349.4063 332.4949 312.8109 
-4.3548 88.9454 57.8036 357.2462 349.3227 183.8017 356.7969 349.1809 1.3829 3.9462 19.0341 1.0200 355.9957 357.7639 358.5010 358.8560 16.7862 358.7626 339.7650 357.5552 13.5895 331.8395 60.4257 324.5831 10.8661 356.4011 323.2133 89.7907 355.7795 350.4181 26.7598 356.8967 346.9646 36.1147 52.9252 18.4951 336.4820 353.2838 32.0151 270.3658 354.8898 3.5320 354.3005 339.0935 3.5939 356.8680 19.1485 3.4618 2.0982 354.7717 13.9044 356.7286 357.2474 1.7887 9.8286 25.9560 14.6343 349.6035 332.0373 313.1922 
-4.5655 88.9337 57.3553 357.1170 349.2282 183.6985 356.7877 349.0216 1.2535 3.6649 19.1677 0.9331 356.0906 357.8703 358.6742 358.4593 16.8401 358.9783 339.7588 357.5604 13.6038 332.3821 60.2826 324.0735 10.9322 356.3685 323.1319 89.7249 355.7645 350.4871 26.8138 356.8744 346.9086 35.9420 53.0439 18.5958 336.7284 353.3278 32.0153 270.6239 354.8657 4.2449 354.0399 339.2932 3.1767 356.7750 19.2025 3.7939 2.1066 354.4869 13.9999 356.2669 356.7340 1.3250 10.0015 27.2828 14.7866 350.6237 332.0970 313.7523 
-4.7208 88.9121 56.8949 357.0292 349.2966 183.4629 356.7117 349.0400 1.2123 3.5690 19.2348 0.9243 355.8101 357.9617 358.9531 358.3140 17.0808 359.2747 339.7150 357.5481 13.6549 332.6274 60.2538 323.7445 11.1943 356.2308 323.1712 89.7348 355.7457 350.6363 26.9069 356.8845 347.0717 35.9067 52.9423 18.2763 337.1147 353.4216 32.2196 270.9154 354.9055 5.0464 353.9855 339.6615 3.2364 356.6681 19.2792 3.7461 2.1822 354.1862 14.1619 355.8922 356.2361 1.0000 10.1443 28.9346 14.9491 351.2565 332.1671 314.3769 
-4.8929 88.9024 56.4479 356.9993 349.2954 183.3657 356.7334 349.0059 1.0952 3.4060 19.2901 0.8229 355.5711 358.2843 359.1110 358.4459 16.8025 359.3991 339.6402 357.5498 13.5871 332.8146 59.9728 323.6927 11.1909 356.2192 322.9656 89.9312 355.8092 350.7669 27.0254 356.8933 347.1303 35.9393 52.7663 17.9887 337.4184 353.4765 32.3948 271.1423 354.8468 5.7630 353.9048 339.9462 3.0857 356.5604 19.3435 3.7551 2.2372 353.9006 14.3391 355.5316 355.6621 0.6559 10.5474 30.5165 14.5039 352.1854 331.8718 315.1137 
-5.0417 88.8893 56.0025 356.9549 349.3500 183.1788 356.7002 349.0535 1.0161 3.3265 19.2919 0.7592 355.2157 358.6364 359.3432 358.5549 16.5629 359.6040 339.5029 357.5377 13.5852 332.9912 59.6883 323.6940 11.1928 356.2039 322.7302 90.1194 355.8840 350.9509 27.0078 356.9115 347.1659 35.8451 52.9887 17.9763 337.4600 353.4402 32.3392 271.5148 354.8062 6.2523 353.8876 340.3185 3.1042 356.4092 19.3623 3.6292 2.3801 353.6008 14.6228 355.1558 355.0522 0.4910 10.9043 32.2337 14.2919 353.1511 331.8117 315.7296 
-5.1732 88.8704 55.5660 356.8934 349.4541 182.9180 356.6513 349.1484 0.9757 3.2224 19.3381 0.7413 355.0537 358.7432 359.6028 358.3914 16.6569 359.8846 339.4605 357.5347 13.6204 333.1752 59.4493 323.5289 11.3202 356.1344 322.5951 90.2139 355.9378 351.1640 27.0219 356.9192 347.2052 35.7452 53.1520 17.9819 337.5029 353.4308 32.3213 271.5414 354.8234 6.3820 353.9012 340.7485 3.2952 356.2780 19.3547 3.5078 2.4886 353.2974 14.8118 354.7728 354.3885 0.2296 11.1820 34.1201 14.1555 353.7952 331.9733 316.2977 
-5.2987 88.8520 55.1445 356.8463 349.5544 182.6711 356.6155 349.2691 0.9247 3.1159 19.3537 0.7072 354.9300 358.8422 359.8346 358.2682 16.7150 0.1313 339.4587 357.5158 13.6340 333.3084 59.2425 323.3798 11.4827 356.0611 322.4860 90.2610 355.9482 351.3808 27.0607 356.9153 347.2519 35.7945 53.1330 17.8369 337.5653 353.4377 32.3795 271.4253 354.8030 6.5176 353.9173 341.1695 3.5564 356.2324 19.4047 3.3759 2.4792 352.9952 14.7996 354.3884 353.6538 0.1090 11.6658 36.0349 13.5747 354.4173 332.3600 316.9992 
-5.4233 88.8327 54.7233 356.8098 349.6699 182.4411 356.5610 349.4088 0.8737 3.0729 19.3491 0.6622 354.8173 359.0159 0.0546 358.1190 16.6647 0.3655 339.4383 357.5098 13.6330 333.4824 59.1018 323.1953 11.6194 356.0042 322.3769 90.4271 356.0160 351.6951 27.0219 356.9044 347.2467 35.8478 53.2644 17.7872 337.4472 353.3842 32.3291 271.4811 354.7800 6.3916 353.9314 341.6375 3.7755 356.1913 19.3899 3.3278 2.4265 352.7292 14.7325 354.0032 352.8961 0.1194 12.2614 37.9344 12.9881 355.0287 332.9291 317.6618 
-5.5466 88.8116 54.3190 356.7728 349.7662 182.2283 356.5117 349.5630 0.8154 3.0073 19.2979 0.6190 354.8272 359.1925 0.2661 357.8243 16.6468 0.6119 339.4183 357.5177 13.5953 333.6737 58.9570 323.0395 11.7519 355.9544 322.2406 90.4832 356.0906 352.0737 26.9732 356.9037 347.2115 35.9444 53.4412 17.7624 337.2711 353.3207 32.2494 271.4225 354.9618 5.9561 353.9290 342.0933 3.9260 356.0990 19.2605 3.4642 2.5746 352.5203 14.6414 353.6006 352.0652 0.0787 12.8821 39.8555 12.4850 355.0961 333.9215 318.2851 
